# xmcd CD database file
#
# Track frame offsets:
#	150
#	31495
#	47484
#	63958
#	76263
#	99430
#	108573
#	131590
#	146013
#	164664
#
# Disc length: 2572 seconds
#
# Revision: 1
# Processed by: cddbd v1.5.2PL0 Copyright (c) Steve Scherf et al.
# Submitted via: CDex 2.02
#
DISCID=840a0a0a
DTITLE=John Reischman and John Miller - Road Trip
DYEAR=2013
DGENRE=Jazz
TTITLE0=Road Trip
TTITLE1=Vou Vivendo
TTITLE2=Stay, Stay
TTITLE3=Mi Amigo Carlos
TTITLE4=Hey, Hey, B. B.
TTITLE5=Passeio do Figa
TTITLE6=Freshet
TTITLE7=Reminiscence
TTITLE8=Vamanos
TTITLE9=Quilombo
EXTD=YEAR: 2013
EXTT0=
EXTT1=
EXTT2=
EXTT3=
EXTT4=
EXTT5=
EXTT6=
EXTT7=
EXTT8=
EXTT9=
PLAYORDER=
